# xmcd
#
# Track frame offsets:
#	150
#	16771
#	32491
#	47523
#	62537
#	77387
#	91762
#	105893
#	119940
#	133257
#	146040
#	158404
#	170727
#	183046
#	195263
#	207136
#	218832
#	230340
#	241383
#	252328
#	263123
#	273578
#	284011
#	294276
#	304475
#
# Disc length: 4181 seconds
#
# Revision: 1
# Processed by: cddbd v1.5.2PL0 Copyright (c) Steve Scherf et al.
# Submitted via: audiograbber 1.83.01
#
DISCID=5b105319
DTITLE=REGINALDO ROSSI - 25 SUCESSOS ORIGINAIS - VOL. 2
DYEAR=1900
DGENRE=BREGA
TTITLE0=VOU COMEÇAR TUDO DE NOVO
TTITLE1=O MELHOR AMIGO MEU
TTITLE2=NÃO QUERO MAIS SABER DE TI
TTITLE3=É MENTIRA
TTITLE4=SEM VOCÊ EU JÁ MORRI
TTITLE5=CUCA FRESCA
TTITLE6=VEM
TTITLE7=SE VOCÊ QUER PODE IR
TTITLE8=TÔ DOIDÃO
TTITLE9=O GÊNIO CABELUDO
TTITLE10=UM ROMANCE QUE NIMGUÉM LEU
TTITLE11=AINDA AMA VOCÊ
TTITLE12=DESTERRO
TTITLE13=PRA SENTIR FELICIDADE
TTITLE14=ERA DOMINGO
TTITLE15=PERDI A GRAÇA
TTITLE16=PORQUE VOCÊ JÁ NÃO ME MATA DE UMA VEZ
TTITLE17=ENQUANTO EU CHORAVA
TTITLE18=PEDAÇO DE MAL CAMINHO
TTITLE19=MON AMOUR, MEU BEM MA FEMME
TTITLE20=AQUELA TRISTE CANÇÃO
TTITLE21=A PROCURA DE VOCÊ
TTITLE22=O PAQUERADOR
TTITLE23=HOJE A NOITE VOU SAIR
TTITLE24=UMA ALEGRE CANÇÃO
EXTD=
EXTT0=
EXTT1=
EXTT2=
EXTT3=
EXTT4=
EXTT5=
EXTT6=
EXTT7=
EXTT8=
EXTT9=
EXTT10=
EXTT11=
EXTT12=
EXTT13=
EXTT14=
EXTT15=
EXTT16=
EXTT17=
EXTT18=
EXTT19=
EXTT20=
EXTT21=
EXTT22=
EXTT23=
EXTT24=
PLAYORDER=
